%TF.GenerationSoftware,KiCad,Pcbnew,10.0.2*%
%TF.CreationDate,2026-10-01T01:24:12-04:00*%
%TF.ProjectId,Buck Converter,4275636b-2043-46f6-9e76-65727465722e,rev?*%
%TF.SameCoordinates,Original*%
%TF.FileFunction,Soldermask,Top*%
%TF.FilePolarity,Negative*%
%FSLAX46Y46*%
G04 Gerber Fmt 4.6, Leading zero omitted, Abs format (unit mm)*
G04 Created by KiCad (PCBNEW 10.0.2) date 2026-10-01 01:24:12*
%MOMM*%
%LPD*%
G01*
G04 APERTURE LIST*
G04 Aperture macros list*
%AMRoundRect*
0 Rectangle with rounded corners*
0 $1 Rounding radius*
0 $2 $3 $4 $5 $6 $7 $8 $9 X,Y pos of 4 corners*
0 Add a 4 corners polygon primitive as box body*
4,1,4,$2,$3,$4,$5,$6,$7,$8,$9,$2,$3,0*
0 Add four circle primitives for the rounded corners*
1,1,$1+$1,$2,$3*
1,1,$1+$1,$4,$5*
1,1,$1+$1,$6,$7*
1,1,$1+$1,$8,$9*
0 Add four rect primitives between the rounded corners*
20,1,$1+$1,$2,$3,$4,$5,0*
20,1,$1+$1,$4,$5,$6,$7,0*
20,1,$1+$1,$6,$7,$8,$9,0*
20,1,$1+$1,$8,$9,$2,$3,0*%
G04 Aperture macros list end*
%ADD10RoundRect,0.150000X-0.825000X-0.150000X0.825000X-0.150000X0.825000X0.150000X-0.825000X0.150000X0*%
%ADD11RoundRect,0.200000X-0.200000X-0.275000X0.200000X-0.275000X0.200000X0.275000X-0.200000X0.275000X0*%
%ADD12RoundRect,0.200000X-0.275000X0.200000X-0.275000X-0.200000X0.275000X-0.200000X0.275000X0.200000X0*%
%ADD13RoundRect,0.250000X-0.850000X-0.350000X0.850000X-0.350000X0.850000X0.350000X-0.850000X0.350000X0*%
%ADD14RoundRect,0.249997X-2.950003X-2.650003X2.950003X-2.650003X2.950003X2.650003X-2.950003X2.650003X0*%
%ADD15RoundRect,0.250000X0.350000X-0.850000X0.350000X0.850000X-0.350000X0.850000X-0.350000X-0.850000X0*%
%ADD16RoundRect,0.249997X2.650003X-2.950003X2.650003X2.950003X-2.650003X2.950003X-2.650003X-2.950003X0*%
%ADD17R,2.950000X3.500000*%
%ADD18RoundRect,0.250001X-1.149999X-1.149999X1.149999X-1.149999X1.149999X1.149999X-1.149999X1.149999X0*%
%ADD19C,2.800000*%
%ADD20RoundRect,0.250001X1.149999X1.149999X-1.149999X1.149999X-1.149999X-1.149999X1.149999X-1.149999X0*%
%ADD21RoundRect,0.250000X-1.950000X-0.700000X1.950000X-0.700000X1.950000X0.700000X-1.950000X0.700000X0*%
%ADD22RoundRect,0.225000X-0.225000X-0.250000X0.225000X-0.250000X0.225000X0.250000X-0.225000X0.250000X0*%
%ADD23RoundRect,0.250000X0.650000X-0.325000X0.650000X0.325000X-0.650000X0.325000X-0.650000X-0.325000X0*%
%ADD24RoundRect,0.225000X0.250000X-0.225000X0.250000X0.225000X-0.250000X0.225000X-0.250000X-0.225000X0*%
%ADD25RoundRect,0.250000X0.250000X0.475000X-0.250000X0.475000X-0.250000X-0.475000X0.250000X-0.475000X0*%
%ADD26RoundRect,0.250000X-1.500000X-1.000000X1.500000X-1.000000X1.500000X1.000000X-1.500000X1.000000X0*%
G04 APERTURE END LIST*
D10*
%TO.C,U1*%
X49050000Y-72690000D03*
X49050000Y-73960000D03*
X49050000Y-75230000D03*
X49050000Y-76500000D03*
X54000000Y-76500000D03*
X54000000Y-75230000D03*
X54000000Y-73960000D03*
X54000000Y-72690000D03*
%TD*%
D11*
%TO.C,R2*%
X58350000Y-83500000D03*
X60000000Y-83500000D03*
%TD*%
%TO.C,R1*%
X57850000Y-74000000D03*
X59500000Y-74000000D03*
%TD*%
%TO.C,R4*%
X64850000Y-83500000D03*
X66500000Y-83500000D03*
%TD*%
D12*
%TO.C,R5*%
X45500000Y-74850000D03*
X45500000Y-76500000D03*
%TD*%
D11*
%TO.C,R3*%
X68350000Y-79500000D03*
X70000000Y-79500000D03*
%TD*%
D13*
%TO.C,Q2*%
X34025000Y-78695000D03*
D14*
X40325000Y-80975000D03*
D13*
X34025000Y-83255000D03*
%TD*%
D15*
%TO.C,Q1*%
X34695000Y-74475000D03*
D16*
X36975000Y-68175000D03*
D15*
X39255000Y-74475000D03*
%TD*%
D17*
%TO.C,L1*%
X38050000Y-91500000D03*
X43500000Y-91500000D03*
%TD*%
D18*
%TO.C,J2*%
X68000000Y-99500000D03*
D19*
X73000000Y-99500000D03*
%TD*%
D20*
%TO.C,J1*%
X47000000Y-58000000D03*
D19*
X42000000Y-58000000D03*
%TD*%
D21*
%TO.C,C6*%
X48800000Y-99500000D03*
X57500000Y-99500000D03*
%TD*%
D22*
%TO.C,C1*%
X57450000Y-78500000D03*
X59000000Y-78500000D03*
%TD*%
D23*
%TO.C,C8*%
X30500000Y-77000000D03*
X30500000Y-74050000D03*
%TD*%
D24*
%TO.C,C2*%
X63500000Y-75500000D03*
X63500000Y-73950000D03*
%TD*%
D25*
%TO.C,C3*%
X52500000Y-81000000D03*
X50600000Y-81000000D03*
%TD*%
D26*
%TO.C,C7*%
X65500000Y-58000000D03*
X59000000Y-58000000D03*
%TD*%
D22*
%TO.C,C4*%
X50450000Y-68000000D03*
X52000000Y-68000000D03*
%TD*%
%TO.C,C5*%
X68450000Y-75500000D03*
X70000000Y-75500000D03*
%TD*%
M02*
