%TF.GenerationSoftware,KiCad,Pcbnew,10.0.2*%
%TF.CreationDate,2026-10-01T01:24:12-04:00*%
%TF.ProjectId,Buck Converter,4275636b-2043-46f6-9e76-65727465722e,rev?*%
%TF.SameCoordinates,Original*%
%TF.FileFunction,Copper,L2,Bot*%
%TF.FilePolarity,Positive*%
%FSLAX46Y46*%
G04 Gerber Fmt 4.6, Leading zero omitted, Abs format (unit mm)*
G04 Created by KiCad (PCBNEW 10.0.2) date 2026-10-01 01:24:12*
%MOMM*%
%LPD*%
G01*
G04 APERTURE LIST*
G04 Aperture macros list*
%AMRoundRect*
0 Rectangle with rounded corners*
0 $1 Rounding radius*
0 $2 $3 $4 $5 $6 $7 $8 $9 X,Y pos of 4 corners*
0 Add a 4 corners polygon primitive as box body*
4,1,4,$2,$3,$4,$5,$6,$7,$8,$9,$2,$3,0*
0 Add four circle primitives for the rounded corners*
1,1,$1+$1,$2,$3*
1,1,$1+$1,$4,$5*
1,1,$1+$1,$6,$7*
1,1,$1+$1,$8,$9*
0 Add four rect primitives between the rounded corners*
20,1,$1+$1,$2,$3,$4,$5,0*
20,1,$1+$1,$4,$5,$6,$7,0*
20,1,$1+$1,$6,$7,$8,$9,0*
20,1,$1+$1,$8,$9,$2,$3,0*%
G04 Aperture macros list end*
%TA.AperFunction,ComponentPad*%
%ADD10RoundRect,0.250001X-1.149999X-1.149999X1.149999X-1.149999X1.149999X1.149999X-1.149999X1.149999X0*%
%TD*%
%TA.AperFunction,ComponentPad*%
%ADD11C,2.800000*%
%TD*%
%TA.AperFunction,ComponentPad*%
%ADD12RoundRect,0.250001X1.149999X1.149999X-1.149999X1.149999X-1.149999X-1.149999X1.149999X-1.149999X0*%
%TD*%
%TA.AperFunction,ViaPad*%
%ADD13C,0.600000*%
%TD*%
%TA.AperFunction,Conductor*%
%ADD14C,0.500000*%
%TD*%
%TA.AperFunction,Conductor*%
%ADD15C,0.200000*%
%TD*%
G04 APERTURE END LIST*
D10*
%TO.P,J2,1,Pin_1_1*%
%TO.N,+5V*%
X68000000Y-99500000D03*
D11*
%TO.P,J2,2,Pin_2_2*%
%TO.N,GND*%
X73000000Y-99500000D03*
%TD*%
D12*
%TO.P,J1,1,Pin_1_1*%
%TO.N,+12V*%
X47000000Y-58000000D03*
D11*
%TO.P,J1,2,Pin_2_2*%
%TO.N,GND*%
X42000000Y-58000000D03*
%TD*%
D13*
%TO.N,GND*%
X50600000Y-81000000D03*
X49050000Y-75230000D03*
%TO.N,+12V*%
X54500000Y-60500000D03*
X52500000Y-79000000D03*
%TO.N,Net-(Q2-G)*%
X34000000Y-77000000D03*
X47000000Y-76500000D03*
%TO.N,GND*%
X34025000Y-84500000D03*
X33135000Y-82365000D03*
X29750000Y-76250000D03*
X30500000Y-78000000D03*
%TD*%
%TO.N,+12V*%
D14*
X52000000Y-79000000D02*
X51500000Y-78500000D01*
X52500000Y-79000000D02*
X52000000Y-79000000D01*
X51500000Y-73000000D02*
X51500000Y-78500000D01*
X54500000Y-70000000D02*
X51500000Y-73000000D01*
X54500000Y-60500000D02*
X54500000Y-70000000D01*
%TO.N,Net-(Q2-G)*%
D15*
X34500000Y-76500000D02*
X34000000Y-77000000D01*
X47000000Y-76500000D02*
X34500000Y-76500000D01*
%TD*%
%TA.AperFunction,Conductor*%
%TO.N,GND*%
G36*
X78943039Y-52019685D02*
G01*
X78988794Y-52072489D01*
X79000000Y-52124000D01*
X79000000Y-107376000D01*
X78980315Y-107443039D01*
X78927511Y-107488794D01*
X78876000Y-107500000D01*
X27124000Y-107500000D01*
X27056961Y-107480315D01*
X27011206Y-107427511D01*
X27000000Y-107376000D01*
X27000000Y-98299984D01*
X66099500Y-98299984D01*
X66099500Y-100700015D01*
X66110000Y-100802795D01*
X66110001Y-100802796D01*
X66165186Y-100969335D01*
X66165187Y-100969337D01*
X66257286Y-101118651D01*
X66257289Y-101118655D01*
X66381344Y-101242710D01*
X66381348Y-101242713D01*
X66530662Y-101334812D01*
X66530664Y-101334813D01*
X66530666Y-101334814D01*
X66697203Y-101389999D01*
X66799992Y-101400500D01*
X66799997Y-101400500D01*
X69200003Y-101400500D01*
X69200008Y-101400500D01*
X69302797Y-101389999D01*
X69469334Y-101334814D01*
X69618655Y-101242711D01*
X69742711Y-101118655D01*
X69834814Y-100969334D01*
X69889999Y-100802797D01*
X69900500Y-100700008D01*
X69900500Y-99375466D01*
X71100000Y-99375466D01*
X71100000Y-99624533D01*
X71132508Y-99871463D01*
X71196973Y-100112049D01*
X71292283Y-100342148D01*
X71292288Y-100342159D01*
X71416813Y-100557841D01*
X71416819Y-100557849D01*
X71491400Y-100655045D01*
X72398958Y-99747487D01*
X72423978Y-99807890D01*
X72495112Y-99914351D01*
X72585649Y-100004888D01*
X72692110Y-100076022D01*
X72752511Y-100101041D01*
X71844953Y-101008598D01*
X71942150Y-101083180D01*
X71942158Y-101083186D01*
X72157840Y-101207711D01*
X72157851Y-101207716D01*
X72387950Y-101303026D01*
X72628536Y-101367491D01*
X72875466Y-101400000D01*
X73124534Y-101400000D01*
X73371463Y-101367491D01*
X73612049Y-101303026D01*
X73842148Y-101207716D01*
X73842159Y-101207711D01*
X74057855Y-101083178D01*
X74155045Y-101008600D01*
X74155045Y-101008597D01*
X73247488Y-100101041D01*
X73307890Y-100076022D01*
X73414351Y-100004888D01*
X73504888Y-99914351D01*
X73576022Y-99807890D01*
X73601041Y-99747488D01*
X74508597Y-100655045D01*
X74508600Y-100655045D01*
X74583178Y-100557855D01*
X74707711Y-100342159D01*
X74707716Y-100342148D01*
X74803026Y-100112049D01*
X74867491Y-99871463D01*
X74900000Y-99624533D01*
X74900000Y-99375466D01*
X74867491Y-99128536D01*
X74803026Y-98887950D01*
X74707716Y-98657851D01*
X74707711Y-98657840D01*
X74583186Y-98442158D01*
X74583180Y-98442150D01*
X74508598Y-98344953D01*
X73601041Y-99252510D01*
X73576022Y-99192110D01*
X73504888Y-99085649D01*
X73414351Y-98995112D01*
X73307890Y-98923978D01*
X73247487Y-98898957D01*
X74155045Y-97991400D01*
X74057849Y-97916819D01*
X74057841Y-97916813D01*
X73842159Y-97792288D01*
X73842148Y-97792283D01*
X73612049Y-97696973D01*
X73371463Y-97632508D01*
X73124534Y-97600000D01*
X72875466Y-97600000D01*
X72628536Y-97632508D01*
X72387950Y-97696973D01*
X72157851Y-97792283D01*
X72157847Y-97792285D01*
X71942143Y-97916823D01*
X71844953Y-97991399D01*
X71844953Y-97991400D01*
X72752511Y-98898958D01*
X72692110Y-98923978D01*
X72585649Y-98995112D01*
X72495112Y-99085649D01*
X72423978Y-99192110D01*
X72398958Y-99252511D01*
X71491400Y-98344953D01*
X71491399Y-98344953D01*
X71416823Y-98442143D01*
X71292285Y-98657847D01*
X71292283Y-98657851D01*
X71196973Y-98887950D01*
X71132508Y-99128536D01*
X71100000Y-99375466D01*
X69900500Y-99375466D01*
X69900500Y-98299992D01*
X69889999Y-98197203D01*
X69834814Y-98030666D01*
X69810594Y-97991400D01*
X69742713Y-97881348D01*
X69742710Y-97881344D01*
X69618655Y-97757289D01*
X69618651Y-97757286D01*
X69469337Y-97665187D01*
X69469335Y-97665186D01*
X69386065Y-97637593D01*
X69302797Y-97610001D01*
X69302795Y-97610000D01*
X69200015Y-97599500D01*
X69200008Y-97599500D01*
X66799992Y-97599500D01*
X66799984Y-97599500D01*
X66697204Y-97610000D01*
X66697203Y-97610001D01*
X66530664Y-97665186D01*
X66530662Y-97665187D01*
X66381348Y-97757286D01*
X66381344Y-97757289D01*
X66257289Y-97881344D01*
X66257286Y-97881348D01*
X66165187Y-98030662D01*
X66165186Y-98030664D01*
X66110001Y-98197203D01*
X66110000Y-98197204D01*
X66099500Y-98299984D01*
X27000000Y-98299984D01*
X27000000Y-78573920D01*
X50749499Y-78573920D01*
X50778340Y-78718907D01*
X50778343Y-78718917D01*
X50834914Y-78855492D01*
X50867812Y-78904727D01*
X50867813Y-78904730D01*
X50917046Y-78978414D01*
X50917052Y-78978421D01*
X51521578Y-79582947D01*
X51521585Y-79582953D01*
X51579704Y-79621786D01*
X51579706Y-79621787D01*
X51579709Y-79621789D01*
X51644505Y-79665084D01*
X51781087Y-79721658D01*
X51781091Y-79721658D01*
X51781092Y-79721659D01*
X51926079Y-79750500D01*
X51926082Y-79750500D01*
X51926083Y-79750500D01*
X52073918Y-79750500D01*
X52195396Y-79750500D01*
X52242844Y-79759937D01*
X52266503Y-79769737D01*
X52266508Y-79769738D01*
X52266511Y-79769739D01*
X52421153Y-79800499D01*
X52421156Y-79800500D01*
X52421158Y-79800500D01*
X52578844Y-79800500D01*
X52578845Y-79800499D01*
X52733497Y-79769737D01*
X52879179Y-79709394D01*
X53010289Y-79621789D01*
X53121789Y-79510289D01*
X53209394Y-79379179D01*
X53269737Y-79233497D01*
X53300500Y-79078842D01*
X53300500Y-78921158D01*
X53300500Y-78921155D01*
X53300499Y-78921153D01*
X53269738Y-78766510D01*
X53269737Y-78766503D01*
X53269735Y-78766498D01*
X53209397Y-78620827D01*
X53209390Y-78620814D01*
X53121789Y-78489711D01*
X53121786Y-78489707D01*
X53010292Y-78378213D01*
X53010288Y-78378210D01*
X52879185Y-78290609D01*
X52879172Y-78290602D01*
X52733501Y-78230264D01*
X52733489Y-78230261D01*
X52578845Y-78199500D01*
X52578842Y-78199500D01*
X52421158Y-78199500D01*
X52398689Y-78203969D01*
X52329098Y-78197740D01*
X52273921Y-78154876D01*
X52250678Y-78088986D01*
X52250500Y-78082351D01*
X52250500Y-73362229D01*
X52270185Y-73295190D01*
X52286819Y-73274548D01*
X53039787Y-72521580D01*
X55082952Y-70478415D01*
X55110205Y-70437627D01*
X55165084Y-70355495D01*
X55188518Y-70298920D01*
X55221659Y-70218912D01*
X55250500Y-70073917D01*
X55250500Y-69926082D01*
X55250500Y-60804604D01*
X55259939Y-60757151D01*
X55269737Y-60733497D01*
X55300500Y-60578842D01*
X55300500Y-60421158D01*
X55300500Y-60421155D01*
X55300499Y-60421153D01*
X55269738Y-60266510D01*
X55269737Y-60266503D01*
X55269735Y-60266498D01*
X55209397Y-60120827D01*
X55209390Y-60120814D01*
X55121789Y-59989711D01*
X55121786Y-59989707D01*
X55010292Y-59878213D01*
X55010288Y-59878210D01*
X54879185Y-59790609D01*
X54879172Y-59790602D01*
X54733501Y-59730264D01*
X54733489Y-59730261D01*
X54578845Y-59699500D01*
X54578842Y-59699500D01*
X54421158Y-59699500D01*
X54421155Y-59699500D01*
X54266510Y-59730261D01*
X54266498Y-59730264D01*
X54120827Y-59790602D01*
X54120814Y-59790609D01*
X53989711Y-59878210D01*
X53989707Y-59878213D01*
X53878213Y-59989707D01*
X53878210Y-59989711D01*
X53790609Y-60120814D01*
X53790602Y-60120827D01*
X53730264Y-60266498D01*
X53730261Y-60266510D01*
X53699500Y-60421153D01*
X53699500Y-60578846D01*
X53730261Y-60733489D01*
X53730263Y-60733497D01*
X53740061Y-60757151D01*
X53749500Y-60804604D01*
X53749500Y-69637769D01*
X53729815Y-69704808D01*
X53713181Y-69725450D01*
X50917050Y-72521580D01*
X50917044Y-72521588D01*
X50867812Y-72595268D01*
X50867813Y-72595269D01*
X50834921Y-72644496D01*
X50834914Y-72644508D01*
X50778342Y-72781086D01*
X50778340Y-72781092D01*
X50749500Y-72926079D01*
X50749500Y-72926082D01*
X50749500Y-78573918D01*
X50749500Y-78573920D01*
X50749499Y-78573920D01*
X27000000Y-78573920D01*
X27000000Y-76921153D01*
X33199500Y-76921153D01*
X33199500Y-77078846D01*
X33230261Y-77233489D01*
X33230264Y-77233501D01*
X33290602Y-77379172D01*
X33290609Y-77379185D01*
X33378210Y-77510288D01*
X33378213Y-77510292D01*
X33489707Y-77621786D01*
X33489711Y-77621789D01*
X33620814Y-77709390D01*
X33620827Y-77709397D01*
X33766498Y-77769735D01*
X33766503Y-77769737D01*
X33921153Y-77800499D01*
X33921156Y-77800500D01*
X33921158Y-77800500D01*
X34078844Y-77800500D01*
X34078845Y-77800499D01*
X34233497Y-77769737D01*
X34379179Y-77709394D01*
X34510289Y-77621789D01*
X34621789Y-77510289D01*
X34709394Y-77379179D01*
X34769737Y-77233497D01*
X34774531Y-77209397D01*
X34776339Y-77200309D01*
X34808724Y-77138398D01*
X34869439Y-77103824D01*
X34897956Y-77100500D01*
X46420234Y-77100500D01*
X46487273Y-77120185D01*
X46489125Y-77121398D01*
X46620814Y-77209390D01*
X46620827Y-77209397D01*
X46766498Y-77269735D01*
X46766503Y-77269737D01*
X46921153Y-77300499D01*
X46921156Y-77300500D01*
X46921158Y-77300500D01*
X47078844Y-77300500D01*
X47078845Y-77300499D01*
X47233497Y-77269737D01*
X47379179Y-77209394D01*
X47510289Y-77121789D01*
X47621789Y-77010289D01*
X47709394Y-76879179D01*
X47769737Y-76733497D01*
X47800500Y-76578842D01*
X47800500Y-76421158D01*
X47800500Y-76421155D01*
X47800499Y-76421153D01*
X47774531Y-76290606D01*
X47769737Y-76266503D01*
X47769735Y-76266498D01*
X47709397Y-76120827D01*
X47709390Y-76120814D01*
X47621789Y-75989711D01*
X47621786Y-75989707D01*
X47510292Y-75878213D01*
X47510288Y-75878210D01*
X47379185Y-75790609D01*
X47379172Y-75790602D01*
X47233501Y-75730264D01*
X47233489Y-75730261D01*
X47078845Y-75699500D01*
X47078842Y-75699500D01*
X46921158Y-75699500D01*
X46921155Y-75699500D01*
X46766510Y-75730261D01*
X46766498Y-75730264D01*
X46620827Y-75790602D01*
X46620814Y-75790609D01*
X46489125Y-75878602D01*
X46422447Y-75899480D01*
X46420234Y-75899500D01*
X34586670Y-75899500D01*
X34586654Y-75899499D01*
X34579058Y-75899499D01*
X34420943Y-75899499D01*
X34344579Y-75919961D01*
X34268214Y-75940423D01*
X34268209Y-75940426D01*
X34131290Y-76019475D01*
X34131286Y-76019478D01*
X33985337Y-76165427D01*
X33924014Y-76198911D01*
X33921848Y-76199362D01*
X33766508Y-76230261D01*
X33766498Y-76230264D01*
X33620827Y-76290602D01*
X33620814Y-76290609D01*
X33489711Y-76378210D01*
X33489707Y-76378213D01*
X33378213Y-76489707D01*
X33378210Y-76489711D01*
X33290609Y-76620814D01*
X33290602Y-76620827D01*
X33230264Y-76766498D01*
X33230261Y-76766510D01*
X33199500Y-76921153D01*
X27000000Y-76921153D01*
X27000000Y-57875466D01*
X40100000Y-57875466D01*
X40100000Y-58124533D01*
X40132508Y-58371463D01*
X40196973Y-58612049D01*
X40292283Y-58842148D01*
X40292288Y-58842159D01*
X40416813Y-59057841D01*
X40416819Y-59057849D01*
X40491400Y-59155045D01*
X41398958Y-58247487D01*
X41423978Y-58307890D01*
X41495112Y-58414351D01*
X41585649Y-58504888D01*
X41692110Y-58576022D01*
X41752511Y-58601041D01*
X40844953Y-59508598D01*
X40942150Y-59583180D01*
X40942158Y-59583186D01*
X41157840Y-59707711D01*
X41157851Y-59707716D01*
X41387950Y-59803026D01*
X41628536Y-59867491D01*
X41875466Y-59900000D01*
X42124534Y-59900000D01*
X42371463Y-59867491D01*
X42612049Y-59803026D01*
X42842148Y-59707716D01*
X42842159Y-59707711D01*
X43057855Y-59583178D01*
X43155045Y-59508600D01*
X43155045Y-59508597D01*
X42247488Y-58601041D01*
X42307890Y-58576022D01*
X42414351Y-58504888D01*
X42504888Y-58414351D01*
X42576022Y-58307890D01*
X42601041Y-58247489D01*
X43508597Y-59155045D01*
X43508600Y-59155045D01*
X43583178Y-59057855D01*
X43707711Y-58842159D01*
X43707716Y-58842148D01*
X43803026Y-58612049D01*
X43867491Y-58371463D01*
X43900000Y-58124533D01*
X43900000Y-57875466D01*
X43867491Y-57628536D01*
X43803026Y-57387950D01*
X43707716Y-57157851D01*
X43707711Y-57157840D01*
X43583186Y-56942158D01*
X43583174Y-56942140D01*
X43529600Y-56872322D01*
X43529599Y-56872321D01*
X43508598Y-56844953D01*
X42601041Y-57752510D01*
X42576022Y-57692110D01*
X42504888Y-57585649D01*
X42414351Y-57495112D01*
X42307890Y-57423978D01*
X42247487Y-57398957D01*
X42846461Y-56799984D01*
X45099500Y-56799984D01*
X45099500Y-59200015D01*
X45110000Y-59302795D01*
X45110001Y-59302796D01*
X45165186Y-59469335D01*
X45165187Y-59469337D01*
X45257286Y-59618651D01*
X45257289Y-59618655D01*
X45381344Y-59742710D01*
X45381348Y-59742713D01*
X45530662Y-59834812D01*
X45530664Y-59834813D01*
X45530666Y-59834814D01*
X45697203Y-59889999D01*
X45799992Y-59900500D01*
X45799997Y-59900500D01*
X48200003Y-59900500D01*
X48200008Y-59900500D01*
X48302797Y-59889999D01*
X48469334Y-59834814D01*
X48618655Y-59742711D01*
X48742711Y-59618655D01*
X48834814Y-59469334D01*
X48889999Y-59302797D01*
X48900500Y-59200008D01*
X48900500Y-56799992D01*
X48889999Y-56697203D01*
X48834814Y-56530666D01*
X48810594Y-56491400D01*
X48742713Y-56381348D01*
X48742710Y-56381344D01*
X48618655Y-56257289D01*
X48618651Y-56257286D01*
X48469337Y-56165187D01*
X48469335Y-56165186D01*
X48386065Y-56137593D01*
X48302797Y-56110001D01*
X48302795Y-56110000D01*
X48200015Y-56099500D01*
X48200008Y-56099500D01*
X45799992Y-56099500D01*
X45799984Y-56099500D01*
X45697204Y-56110000D01*
X45697203Y-56110001D01*
X45530664Y-56165186D01*
X45530662Y-56165187D01*
X45381348Y-56257286D01*
X45381344Y-56257289D01*
X45257289Y-56381344D01*
X45257286Y-56381348D01*
X45165187Y-56530662D01*
X45165186Y-56530664D01*
X45110001Y-56697203D01*
X45110000Y-56697204D01*
X45099500Y-56799984D01*
X42846461Y-56799984D01*
X43155045Y-56491400D01*
X43057849Y-56416819D01*
X43057841Y-56416813D01*
X42842159Y-56292288D01*
X42842148Y-56292283D01*
X42612049Y-56196973D01*
X42371463Y-56132508D01*
X42124534Y-56100000D01*
X41875466Y-56100000D01*
X41628536Y-56132508D01*
X41387950Y-56196973D01*
X41157851Y-56292283D01*
X41157847Y-56292285D01*
X40942143Y-56416823D01*
X40844953Y-56491399D01*
X40844953Y-56491400D01*
X41752511Y-57398958D01*
X41692110Y-57423978D01*
X41585649Y-57495112D01*
X41495112Y-57585649D01*
X41423978Y-57692110D01*
X41398958Y-57752511D01*
X40491400Y-56844953D01*
X40491399Y-56844953D01*
X40416823Y-56942143D01*
X40292285Y-57157847D01*
X40292283Y-57157851D01*
X40196973Y-57387950D01*
X40132508Y-57628536D01*
X40100000Y-57875466D01*
X27000000Y-57875466D01*
X27000000Y-52124000D01*
X27019685Y-52056961D01*
X27072489Y-52011206D01*
X27124000Y-52000000D01*
X78876000Y-52000000D01*
X78943039Y-52019685D01*
G37*
%TD.AperFunction*%
%TD*%
M02*
