%TF.GenerationSoftware,KiCad,Pcbnew,10.0.2*%
%TF.CreationDate,2026-10-01T01:24:12-04:00*%
%TF.ProjectId,Buck Converter,4275636b-2043-46f6-9e76-65727465722e,rev?*%
%TF.SameCoordinates,Original*%
%TF.FileFunction,Legend,Top*%
%TF.FilePolarity,Positive*%
%FSLAX46Y46*%
G04 Gerber Fmt 4.6, Leading zero omitted, Abs format (unit mm)*
G04 Created by KiCad (PCBNEW 10.0.2) date 2026-10-01 01:24:12*
%MOMM*%
%LPD*%
G01*
G04 APERTURE LIST*
%ADD10C,0.150000*%
%ADD11C,0.300000*%
%ADD12C,0.120000*%
G04 APERTURE END LIST*
D10*
X27360588Y-102539987D02*
X26789160Y-102539987D01*
X27074874Y-102539987D02*
X27074874Y-101539987D01*
X27074874Y-101539987D02*
X26979636Y-101682844D01*
X26979636Y-101682844D02*
X26884398Y-101778082D01*
X26884398Y-101778082D02*
X26789160Y-101825701D01*
X27741541Y-101635225D02*
X27789160Y-101587606D01*
X27789160Y-101587606D02*
X27884398Y-101539987D01*
X27884398Y-101539987D02*
X28122493Y-101539987D01*
X28122493Y-101539987D02*
X28217731Y-101587606D01*
X28217731Y-101587606D02*
X28265350Y-101635225D01*
X28265350Y-101635225D02*
X28312969Y-101730463D01*
X28312969Y-101730463D02*
X28312969Y-101825701D01*
X28312969Y-101825701D02*
X28265350Y-101968558D01*
X28265350Y-101968558D02*
X27693922Y-102539987D01*
X27693922Y-102539987D02*
X28312969Y-102539987D01*
X28598684Y-101539987D02*
X28932017Y-102539987D01*
X28932017Y-102539987D02*
X29265350Y-101539987D01*
X30217732Y-101873320D02*
X30598684Y-101873320D01*
X30360589Y-101539987D02*
X30360589Y-102397129D01*
X30360589Y-102397129D02*
X30408208Y-102492368D01*
X30408208Y-102492368D02*
X30503446Y-102539987D01*
X30503446Y-102539987D02*
X30598684Y-102539987D01*
X31074875Y-102539987D02*
X30979637Y-102492368D01*
X30979637Y-102492368D02*
X30932018Y-102444748D01*
X30932018Y-102444748D02*
X30884399Y-102349510D01*
X30884399Y-102349510D02*
X30884399Y-102063796D01*
X30884399Y-102063796D02*
X30932018Y-101968558D01*
X30932018Y-101968558D02*
X30979637Y-101920939D01*
X30979637Y-101920939D02*
X31074875Y-101873320D01*
X31074875Y-101873320D02*
X31217732Y-101873320D01*
X31217732Y-101873320D02*
X31312970Y-101920939D01*
X31312970Y-101920939D02*
X31360589Y-101968558D01*
X31360589Y-101968558D02*
X31408208Y-102063796D01*
X31408208Y-102063796D02*
X31408208Y-102349510D01*
X31408208Y-102349510D02*
X31360589Y-102444748D01*
X31360589Y-102444748D02*
X31312970Y-102492368D01*
X31312970Y-102492368D02*
X31217732Y-102539987D01*
X31217732Y-102539987D02*
X31074875Y-102539987D01*
X33074875Y-101539987D02*
X32598685Y-101539987D01*
X32598685Y-101539987D02*
X32551066Y-102016177D01*
X32551066Y-102016177D02*
X32598685Y-101968558D01*
X32598685Y-101968558D02*
X32693923Y-101920939D01*
X32693923Y-101920939D02*
X32932018Y-101920939D01*
X32932018Y-101920939D02*
X33027256Y-101968558D01*
X33027256Y-101968558D02*
X33074875Y-102016177D01*
X33074875Y-102016177D02*
X33122494Y-102111415D01*
X33122494Y-102111415D02*
X33122494Y-102349510D01*
X33122494Y-102349510D02*
X33074875Y-102444748D01*
X33074875Y-102444748D02*
X33027256Y-102492368D01*
X33027256Y-102492368D02*
X32932018Y-102539987D01*
X32932018Y-102539987D02*
X32693923Y-102539987D01*
X32693923Y-102539987D02*
X32598685Y-102492368D01*
X32598685Y-102492368D02*
X32551066Y-102444748D01*
X33408209Y-101539987D02*
X33741542Y-102539987D01*
X33741542Y-102539987D02*
X34074875Y-101539987D01*
X35503447Y-102016177D02*
X35646304Y-102063796D01*
X35646304Y-102063796D02*
X35693923Y-102111415D01*
X35693923Y-102111415D02*
X35741542Y-102206653D01*
X35741542Y-102206653D02*
X35741542Y-102349510D01*
X35741542Y-102349510D02*
X35693923Y-102444748D01*
X35693923Y-102444748D02*
X35646304Y-102492368D01*
X35646304Y-102492368D02*
X35551066Y-102539987D01*
X35551066Y-102539987D02*
X35170114Y-102539987D01*
X35170114Y-102539987D02*
X35170114Y-101539987D01*
X35170114Y-101539987D02*
X35503447Y-101539987D01*
X35503447Y-101539987D02*
X35598685Y-101587606D01*
X35598685Y-101587606D02*
X35646304Y-101635225D01*
X35646304Y-101635225D02*
X35693923Y-101730463D01*
X35693923Y-101730463D02*
X35693923Y-101825701D01*
X35693923Y-101825701D02*
X35646304Y-101920939D01*
X35646304Y-101920939D02*
X35598685Y-101968558D01*
X35598685Y-101968558D02*
X35503447Y-102016177D01*
X35503447Y-102016177D02*
X35170114Y-102016177D01*
X36598685Y-101873320D02*
X36598685Y-102539987D01*
X36170114Y-101873320D02*
X36170114Y-102397129D01*
X36170114Y-102397129D02*
X36217733Y-102492368D01*
X36217733Y-102492368D02*
X36312971Y-102539987D01*
X36312971Y-102539987D02*
X36455828Y-102539987D01*
X36455828Y-102539987D02*
X36551066Y-102492368D01*
X36551066Y-102492368D02*
X36598685Y-102444748D01*
X37503447Y-102492368D02*
X37408209Y-102539987D01*
X37408209Y-102539987D02*
X37217733Y-102539987D01*
X37217733Y-102539987D02*
X37122495Y-102492368D01*
X37122495Y-102492368D02*
X37074876Y-102444748D01*
X37074876Y-102444748D02*
X37027257Y-102349510D01*
X37027257Y-102349510D02*
X37027257Y-102063796D01*
X37027257Y-102063796D02*
X37074876Y-101968558D01*
X37074876Y-101968558D02*
X37122495Y-101920939D01*
X37122495Y-101920939D02*
X37217733Y-101873320D01*
X37217733Y-101873320D02*
X37408209Y-101873320D01*
X37408209Y-101873320D02*
X37503447Y-101920939D01*
X37932019Y-102539987D02*
X37932019Y-101539987D01*
X38027257Y-102159034D02*
X38312971Y-102539987D01*
X38312971Y-101873320D02*
X37932019Y-102254272D01*
X40074876Y-102444748D02*
X40027257Y-102492368D01*
X40027257Y-102492368D02*
X39884400Y-102539987D01*
X39884400Y-102539987D02*
X39789162Y-102539987D01*
X39789162Y-102539987D02*
X39646305Y-102492368D01*
X39646305Y-102492368D02*
X39551067Y-102397129D01*
X39551067Y-102397129D02*
X39503448Y-102301891D01*
X39503448Y-102301891D02*
X39455829Y-102111415D01*
X39455829Y-102111415D02*
X39455829Y-101968558D01*
X39455829Y-101968558D02*
X39503448Y-101778082D01*
X39503448Y-101778082D02*
X39551067Y-101682844D01*
X39551067Y-101682844D02*
X39646305Y-101587606D01*
X39646305Y-101587606D02*
X39789162Y-101539987D01*
X39789162Y-101539987D02*
X39884400Y-101539987D01*
X39884400Y-101539987D02*
X40027257Y-101587606D01*
X40027257Y-101587606D02*
X40074876Y-101635225D01*
X40646305Y-102539987D02*
X40551067Y-102492368D01*
X40551067Y-102492368D02*
X40503448Y-102444748D01*
X40503448Y-102444748D02*
X40455829Y-102349510D01*
X40455829Y-102349510D02*
X40455829Y-102063796D01*
X40455829Y-102063796D02*
X40503448Y-101968558D01*
X40503448Y-101968558D02*
X40551067Y-101920939D01*
X40551067Y-101920939D02*
X40646305Y-101873320D01*
X40646305Y-101873320D02*
X40789162Y-101873320D01*
X40789162Y-101873320D02*
X40884400Y-101920939D01*
X40884400Y-101920939D02*
X40932019Y-101968558D01*
X40932019Y-101968558D02*
X40979638Y-102063796D01*
X40979638Y-102063796D02*
X40979638Y-102349510D01*
X40979638Y-102349510D02*
X40932019Y-102444748D01*
X40932019Y-102444748D02*
X40884400Y-102492368D01*
X40884400Y-102492368D02*
X40789162Y-102539987D01*
X40789162Y-102539987D02*
X40646305Y-102539987D01*
X41408210Y-101873320D02*
X41408210Y-102539987D01*
X41408210Y-101968558D02*
X41455829Y-101920939D01*
X41455829Y-101920939D02*
X41551067Y-101873320D01*
X41551067Y-101873320D02*
X41693924Y-101873320D01*
X41693924Y-101873320D02*
X41789162Y-101920939D01*
X41789162Y-101920939D02*
X41836781Y-102016177D01*
X41836781Y-102016177D02*
X41836781Y-102539987D01*
X42217734Y-101873320D02*
X42455829Y-102539987D01*
X42455829Y-102539987D02*
X42693924Y-101873320D01*
X43455829Y-102492368D02*
X43360591Y-102539987D01*
X43360591Y-102539987D02*
X43170115Y-102539987D01*
X43170115Y-102539987D02*
X43074877Y-102492368D01*
X43074877Y-102492368D02*
X43027258Y-102397129D01*
X43027258Y-102397129D02*
X43027258Y-102016177D01*
X43027258Y-102016177D02*
X43074877Y-101920939D01*
X43074877Y-101920939D02*
X43170115Y-101873320D01*
X43170115Y-101873320D02*
X43360591Y-101873320D01*
X43360591Y-101873320D02*
X43455829Y-101920939D01*
X43455829Y-101920939D02*
X43503448Y-102016177D01*
X43503448Y-102016177D02*
X43503448Y-102111415D01*
X43503448Y-102111415D02*
X43027258Y-102206653D01*
X43932020Y-102539987D02*
X43932020Y-101873320D01*
X43932020Y-102063796D02*
X43979639Y-101968558D01*
X43979639Y-101968558D02*
X44027258Y-101920939D01*
X44027258Y-101920939D02*
X44122496Y-101873320D01*
X44122496Y-101873320D02*
X44217734Y-101873320D01*
X44408211Y-101873320D02*
X44789163Y-101873320D01*
X44551068Y-101539987D02*
X44551068Y-102397129D01*
X44551068Y-102397129D02*
X44598687Y-102492368D01*
X44598687Y-102492368D02*
X44693925Y-102539987D01*
X44693925Y-102539987D02*
X44789163Y-102539987D01*
X45503449Y-102492368D02*
X45408211Y-102539987D01*
X45408211Y-102539987D02*
X45217735Y-102539987D01*
X45217735Y-102539987D02*
X45122497Y-102492368D01*
X45122497Y-102492368D02*
X45074878Y-102397129D01*
X45074878Y-102397129D02*
X45074878Y-102016177D01*
X45074878Y-102016177D02*
X45122497Y-101920939D01*
X45122497Y-101920939D02*
X45217735Y-101873320D01*
X45217735Y-101873320D02*
X45408211Y-101873320D01*
X45408211Y-101873320D02*
X45503449Y-101920939D01*
X45503449Y-101920939D02*
X45551068Y-102016177D01*
X45551068Y-102016177D02*
X45551068Y-102111415D01*
X45551068Y-102111415D02*
X45074878Y-102206653D01*
X45979640Y-102539987D02*
X45979640Y-101873320D01*
X45979640Y-102063796D02*
X46027259Y-101968558D01*
X46027259Y-101968558D02*
X46074878Y-101920939D01*
X46074878Y-101920939D02*
X46170116Y-101873320D01*
X46170116Y-101873320D02*
X46265354Y-101873320D01*
X26741541Y-103483264D02*
X26979636Y-104149931D01*
X26979636Y-104149931D02*
X27217731Y-103483264D01*
X28122493Y-104149931D02*
X27551065Y-104149931D01*
X27836779Y-104149931D02*
X27836779Y-103149931D01*
X27836779Y-103149931D02*
X27741541Y-103292788D01*
X27741541Y-103292788D02*
X27646303Y-103388026D01*
X27646303Y-103388026D02*
X27551065Y-103435645D01*
X28551065Y-104054692D02*
X28598684Y-104102312D01*
X28598684Y-104102312D02*
X28551065Y-104149931D01*
X28551065Y-104149931D02*
X28503446Y-104102312D01*
X28503446Y-104102312D02*
X28551065Y-104054692D01*
X28551065Y-104054692D02*
X28551065Y-104149931D01*
X29217731Y-103149931D02*
X29312969Y-103149931D01*
X29312969Y-103149931D02*
X29408207Y-103197550D01*
X29408207Y-103197550D02*
X29455826Y-103245169D01*
X29455826Y-103245169D02*
X29503445Y-103340407D01*
X29503445Y-103340407D02*
X29551064Y-103530883D01*
X29551064Y-103530883D02*
X29551064Y-103768978D01*
X29551064Y-103768978D02*
X29503445Y-103959454D01*
X29503445Y-103959454D02*
X29455826Y-104054692D01*
X29455826Y-104054692D02*
X29408207Y-104102312D01*
X29408207Y-104102312D02*
X29312969Y-104149931D01*
X29312969Y-104149931D02*
X29217731Y-104149931D01*
X29217731Y-104149931D02*
X29122493Y-104102312D01*
X29122493Y-104102312D02*
X29074874Y-104054692D01*
X29074874Y-104054692D02*
X29027255Y-103959454D01*
X29027255Y-103959454D02*
X28979636Y-103768978D01*
X28979636Y-103768978D02*
X28979636Y-103530883D01*
X28979636Y-103530883D02*
X29027255Y-103340407D01*
X29027255Y-103340407D02*
X29074874Y-103245169D01*
X29074874Y-103245169D02*
X29122493Y-103197550D01*
X29122493Y-103197550D02*
X29217731Y-103149931D01*
X26693922Y-104759875D02*
X27265350Y-104759875D01*
X26979636Y-105759875D02*
X26979636Y-104759875D01*
X27503446Y-105093208D02*
X27741541Y-105759875D01*
X27979636Y-105093208D02*
X27741541Y-105759875D01*
X27741541Y-105759875D02*
X27646303Y-105997970D01*
X27646303Y-105997970D02*
X27598684Y-106045589D01*
X27598684Y-106045589D02*
X27503446Y-106093208D01*
X28503446Y-105759875D02*
X28408208Y-105712256D01*
X28408208Y-105712256D02*
X28360589Y-105617017D01*
X28360589Y-105617017D02*
X28360589Y-104759875D01*
X29265351Y-105712256D02*
X29170113Y-105759875D01*
X29170113Y-105759875D02*
X28979637Y-105759875D01*
X28979637Y-105759875D02*
X28884399Y-105712256D01*
X28884399Y-105712256D02*
X28836780Y-105617017D01*
X28836780Y-105617017D02*
X28836780Y-105236065D01*
X28836780Y-105236065D02*
X28884399Y-105140827D01*
X28884399Y-105140827D02*
X28979637Y-105093208D01*
X28979637Y-105093208D02*
X29170113Y-105093208D01*
X29170113Y-105093208D02*
X29265351Y-105140827D01*
X29265351Y-105140827D02*
X29312970Y-105236065D01*
X29312970Y-105236065D02*
X29312970Y-105331303D01*
X29312970Y-105331303D02*
X28836780Y-105426541D01*
X29741542Y-105759875D02*
X29741542Y-105093208D01*
X29741542Y-105283684D02*
X29789161Y-105188446D01*
X29789161Y-105188446D02*
X29836780Y-105140827D01*
X29836780Y-105140827D02*
X29932018Y-105093208D01*
X29932018Y-105093208D02*
X30027256Y-105093208D01*
X31122495Y-105759875D02*
X31122495Y-104759875D01*
X31693923Y-105759875D02*
X31265352Y-105188446D01*
X31693923Y-104759875D02*
X31122495Y-105331303D01*
X32122495Y-105759875D02*
X32122495Y-105093208D01*
X32122495Y-104759875D02*
X32074876Y-104807494D01*
X32074876Y-104807494D02*
X32122495Y-104855113D01*
X32122495Y-104855113D02*
X32170114Y-104807494D01*
X32170114Y-104807494D02*
X32122495Y-104759875D01*
X32122495Y-104759875D02*
X32122495Y-104855113D01*
X32598685Y-105759875D02*
X32598685Y-105093208D01*
X32598685Y-105283684D02*
X32646304Y-105188446D01*
X32646304Y-105188446D02*
X32693923Y-105140827D01*
X32693923Y-105140827D02*
X32789161Y-105093208D01*
X32789161Y-105093208D02*
X32884399Y-105093208D01*
X33217733Y-105759875D02*
X33217733Y-104759875D01*
X33312971Y-105378922D02*
X33598685Y-105759875D01*
X33598685Y-105093208D02*
X33217733Y-105474160D01*
X26884398Y-107369819D02*
X27074874Y-107369819D01*
X27074874Y-107369819D02*
X27170112Y-107322200D01*
X27170112Y-107322200D02*
X27217731Y-107274580D01*
X27217731Y-107274580D02*
X27312969Y-107131723D01*
X27312969Y-107131723D02*
X27360588Y-106941247D01*
X27360588Y-106941247D02*
X27360588Y-106560295D01*
X27360588Y-106560295D02*
X27312969Y-106465057D01*
X27312969Y-106465057D02*
X27265350Y-106417438D01*
X27265350Y-106417438D02*
X27170112Y-106369819D01*
X27170112Y-106369819D02*
X26979636Y-106369819D01*
X26979636Y-106369819D02*
X26884398Y-106417438D01*
X26884398Y-106417438D02*
X26836779Y-106465057D01*
X26836779Y-106465057D02*
X26789160Y-106560295D01*
X26789160Y-106560295D02*
X26789160Y-106798390D01*
X26789160Y-106798390D02*
X26836779Y-106893628D01*
X26836779Y-106893628D02*
X26884398Y-106941247D01*
X26884398Y-106941247D02*
X26979636Y-106988866D01*
X26979636Y-106988866D02*
X27170112Y-106988866D01*
X27170112Y-106988866D02*
X27265350Y-106941247D01*
X27265350Y-106941247D02*
X27312969Y-106893628D01*
X27312969Y-106893628D02*
X27360588Y-106798390D01*
X28503445Y-106322200D02*
X27646303Y-107607914D01*
X28741541Y-106369819D02*
X29360588Y-106369819D01*
X29360588Y-106369819D02*
X29027255Y-106750771D01*
X29027255Y-106750771D02*
X29170112Y-106750771D01*
X29170112Y-106750771D02*
X29265350Y-106798390D01*
X29265350Y-106798390D02*
X29312969Y-106846009D01*
X29312969Y-106846009D02*
X29360588Y-106941247D01*
X29360588Y-106941247D02*
X29360588Y-107179342D01*
X29360588Y-107179342D02*
X29312969Y-107274580D01*
X29312969Y-107274580D02*
X29265350Y-107322200D01*
X29265350Y-107322200D02*
X29170112Y-107369819D01*
X29170112Y-107369819D02*
X28884398Y-107369819D01*
X28884398Y-107369819D02*
X28789160Y-107322200D01*
X28789160Y-107322200D02*
X28741541Y-107274580D01*
X29979636Y-106369819D02*
X30074874Y-106369819D01*
X30074874Y-106369819D02*
X30170112Y-106417438D01*
X30170112Y-106417438D02*
X30217731Y-106465057D01*
X30217731Y-106465057D02*
X30265350Y-106560295D01*
X30265350Y-106560295D02*
X30312969Y-106750771D01*
X30312969Y-106750771D02*
X30312969Y-106988866D01*
X30312969Y-106988866D02*
X30265350Y-107179342D01*
X30265350Y-107179342D02*
X30217731Y-107274580D01*
X30217731Y-107274580D02*
X30170112Y-107322200D01*
X30170112Y-107322200D02*
X30074874Y-107369819D01*
X30074874Y-107369819D02*
X29979636Y-107369819D01*
X29979636Y-107369819D02*
X29884398Y-107322200D01*
X29884398Y-107322200D02*
X29836779Y-107274580D01*
X29836779Y-107274580D02*
X29789160Y-107179342D01*
X29789160Y-107179342D02*
X29741541Y-106988866D01*
X29741541Y-106988866D02*
X29741541Y-106750771D01*
X29741541Y-106750771D02*
X29789160Y-106560295D01*
X29789160Y-106560295D02*
X29836779Y-106465057D01*
X29836779Y-106465057D02*
X29884398Y-106417438D01*
X29884398Y-106417438D02*
X29979636Y-106369819D01*
X31455826Y-106322200D02*
X30598684Y-107607914D01*
X31741541Y-106465057D02*
X31789160Y-106417438D01*
X31789160Y-106417438D02*
X31884398Y-106369819D01*
X31884398Y-106369819D02*
X32122493Y-106369819D01*
X32122493Y-106369819D02*
X32217731Y-106417438D01*
X32217731Y-106417438D02*
X32265350Y-106465057D01*
X32265350Y-106465057D02*
X32312969Y-106560295D01*
X32312969Y-106560295D02*
X32312969Y-106655533D01*
X32312969Y-106655533D02*
X32265350Y-106798390D01*
X32265350Y-106798390D02*
X31693922Y-107369819D01*
X31693922Y-107369819D02*
X32312969Y-107369819D01*
X33170112Y-106369819D02*
X32979636Y-106369819D01*
X32979636Y-106369819D02*
X32884398Y-106417438D01*
X32884398Y-106417438D02*
X32836779Y-106465057D01*
X32836779Y-106465057D02*
X32741541Y-106607914D01*
X32741541Y-106607914D02*
X32693922Y-106798390D01*
X32693922Y-106798390D02*
X32693922Y-107179342D01*
X32693922Y-107179342D02*
X32741541Y-107274580D01*
X32741541Y-107274580D02*
X32789160Y-107322200D01*
X32789160Y-107322200D02*
X32884398Y-107369819D01*
X32884398Y-107369819D02*
X33074874Y-107369819D01*
X33074874Y-107369819D02*
X33170112Y-107322200D01*
X33170112Y-107322200D02*
X33217731Y-107274580D01*
X33217731Y-107274580D02*
X33265350Y-107179342D01*
X33265350Y-107179342D02*
X33265350Y-106941247D01*
X33265350Y-106941247D02*
X33217731Y-106846009D01*
X33217731Y-106846009D02*
X33170112Y-106798390D01*
X33170112Y-106798390D02*
X33074874Y-106750771D01*
X33074874Y-106750771D02*
X32884398Y-106750771D01*
X32884398Y-106750771D02*
X32789160Y-106798390D01*
X32789160Y-106798390D02*
X32741541Y-106846009D01*
X32741541Y-106846009D02*
X32693922Y-106941247D01*
D11*
X62300828Y-101731203D02*
X62300828Y-102445489D01*
X62300828Y-102445489D02*
X63015114Y-102516917D01*
X63015114Y-102516917D02*
X62943685Y-102445489D01*
X62943685Y-102445489D02*
X62872257Y-102302632D01*
X62872257Y-102302632D02*
X62872257Y-101945489D01*
X62872257Y-101945489D02*
X62943685Y-101802632D01*
X62943685Y-101802632D02*
X63015114Y-101731203D01*
X63015114Y-101731203D02*
X63157971Y-101659774D01*
X63157971Y-101659774D02*
X63515114Y-101659774D01*
X63515114Y-101659774D02*
X63657971Y-101731203D01*
X63657971Y-101731203D02*
X63729400Y-101802632D01*
X63729400Y-101802632D02*
X63800828Y-101945489D01*
X63800828Y-101945489D02*
X63800828Y-102302632D01*
X63800828Y-102302632D02*
X63729400Y-102445489D01*
X63729400Y-102445489D02*
X63657971Y-102516917D01*
X62300828Y-101231203D02*
X63800828Y-100731203D01*
X63800828Y-100731203D02*
X62300828Y-100231203D01*
X62300828Y-98302632D02*
X62300828Y-98016918D01*
X62300828Y-98016918D02*
X62372257Y-97874061D01*
X62372257Y-97874061D02*
X62515114Y-97731204D01*
X62515114Y-97731204D02*
X62800828Y-97659775D01*
X62800828Y-97659775D02*
X63300828Y-97659775D01*
X63300828Y-97659775D02*
X63586542Y-97731204D01*
X63586542Y-97731204D02*
X63729400Y-97874061D01*
X63729400Y-97874061D02*
X63800828Y-98016918D01*
X63800828Y-98016918D02*
X63800828Y-98302632D01*
X63800828Y-98302632D02*
X63729400Y-98445490D01*
X63729400Y-98445490D02*
X63586542Y-98588347D01*
X63586542Y-98588347D02*
X63300828Y-98659775D01*
X63300828Y-98659775D02*
X62800828Y-98659775D01*
X62800828Y-98659775D02*
X62515114Y-98588347D01*
X62515114Y-98588347D02*
X62372257Y-98445490D01*
X62372257Y-98445490D02*
X62300828Y-98302632D01*
X62800828Y-96374061D02*
X63800828Y-96374061D01*
X62800828Y-97016918D02*
X63586542Y-97016918D01*
X63586542Y-97016918D02*
X63729400Y-96945489D01*
X63729400Y-96945489D02*
X63800828Y-96802632D01*
X63800828Y-96802632D02*
X63800828Y-96588346D01*
X63800828Y-96588346D02*
X63729400Y-96445489D01*
X63729400Y-96445489D02*
X63657971Y-96374061D01*
X62800828Y-95874060D02*
X62800828Y-95302632D01*
X62300828Y-95659775D02*
X63586542Y-95659775D01*
X63586542Y-95659775D02*
X63729400Y-95588346D01*
X63729400Y-95588346D02*
X63800828Y-95445489D01*
X63800828Y-95445489D02*
X63800828Y-95302632D01*
X76372257Y-100659774D02*
X76300828Y-100802632D01*
X76300828Y-100802632D02*
X76300828Y-101016917D01*
X76300828Y-101016917D02*
X76372257Y-101231203D01*
X76372257Y-101231203D02*
X76515114Y-101374060D01*
X76515114Y-101374060D02*
X76657971Y-101445489D01*
X76657971Y-101445489D02*
X76943685Y-101516917D01*
X76943685Y-101516917D02*
X77157971Y-101516917D01*
X77157971Y-101516917D02*
X77443685Y-101445489D01*
X77443685Y-101445489D02*
X77586542Y-101374060D01*
X77586542Y-101374060D02*
X77729400Y-101231203D01*
X77729400Y-101231203D02*
X77800828Y-101016917D01*
X77800828Y-101016917D02*
X77800828Y-100874060D01*
X77800828Y-100874060D02*
X77729400Y-100659774D01*
X77729400Y-100659774D02*
X77657971Y-100588346D01*
X77657971Y-100588346D02*
X77157971Y-100588346D01*
X77157971Y-100588346D02*
X77157971Y-100874060D01*
X77800828Y-99945489D02*
X76300828Y-99945489D01*
X76300828Y-99945489D02*
X77800828Y-99088346D01*
X77800828Y-99088346D02*
X76300828Y-99088346D01*
X77800828Y-98374060D02*
X76300828Y-98374060D01*
X76300828Y-98374060D02*
X76300828Y-98016917D01*
X76300828Y-98016917D02*
X76372257Y-97802631D01*
X76372257Y-97802631D02*
X76515114Y-97659774D01*
X76515114Y-97659774D02*
X76657971Y-97588345D01*
X76657971Y-97588345D02*
X76943685Y-97516917D01*
X76943685Y-97516917D02*
X77157971Y-97516917D01*
X77157971Y-97516917D02*
X77443685Y-97588345D01*
X77443685Y-97588345D02*
X77586542Y-97659774D01*
X77586542Y-97659774D02*
X77729400Y-97802631D01*
X77729400Y-97802631D02*
X77800828Y-98016917D01*
X77800828Y-98016917D02*
X77800828Y-98374060D01*
X36872257Y-59159774D02*
X36800828Y-59302632D01*
X36800828Y-59302632D02*
X36800828Y-59516917D01*
X36800828Y-59516917D02*
X36872257Y-59731203D01*
X36872257Y-59731203D02*
X37015114Y-59874060D01*
X37015114Y-59874060D02*
X37157971Y-59945489D01*
X37157971Y-59945489D02*
X37443685Y-60016917D01*
X37443685Y-60016917D02*
X37657971Y-60016917D01*
X37657971Y-60016917D02*
X37943685Y-59945489D01*
X37943685Y-59945489D02*
X38086542Y-59874060D01*
X38086542Y-59874060D02*
X38229400Y-59731203D01*
X38229400Y-59731203D02*
X38300828Y-59516917D01*
X38300828Y-59516917D02*
X38300828Y-59374060D01*
X38300828Y-59374060D02*
X38229400Y-59159774D01*
X38229400Y-59159774D02*
X38157971Y-59088346D01*
X38157971Y-59088346D02*
X37657971Y-59088346D01*
X37657971Y-59088346D02*
X37657971Y-59374060D01*
X38300828Y-58445489D02*
X36800828Y-58445489D01*
X36800828Y-58445489D02*
X38300828Y-57588346D01*
X38300828Y-57588346D02*
X36800828Y-57588346D01*
X38300828Y-56874060D02*
X36800828Y-56874060D01*
X36800828Y-56874060D02*
X36800828Y-56516917D01*
X36800828Y-56516917D02*
X36872257Y-56302631D01*
X36872257Y-56302631D02*
X37015114Y-56159774D01*
X37015114Y-56159774D02*
X37157971Y-56088345D01*
X37157971Y-56088345D02*
X37443685Y-56016917D01*
X37443685Y-56016917D02*
X37657971Y-56016917D01*
X37657971Y-56016917D02*
X37943685Y-56088345D01*
X37943685Y-56088345D02*
X38086542Y-56159774D01*
X38086542Y-56159774D02*
X38229400Y-56302631D01*
X38229400Y-56302631D02*
X38300828Y-56516917D01*
X38300828Y-56516917D02*
X38300828Y-56874060D01*
X52800828Y-60159774D02*
X52800828Y-61016917D01*
X52800828Y-60588346D02*
X51300828Y-60588346D01*
X51300828Y-60588346D02*
X51515114Y-60731203D01*
X51515114Y-60731203D02*
X51657971Y-60874060D01*
X51657971Y-60874060D02*
X51729400Y-61016917D01*
X51443685Y-59588346D02*
X51372257Y-59516918D01*
X51372257Y-59516918D02*
X51300828Y-59374061D01*
X51300828Y-59374061D02*
X51300828Y-59016918D01*
X51300828Y-59016918D02*
X51372257Y-58874061D01*
X51372257Y-58874061D02*
X51443685Y-58802632D01*
X51443685Y-58802632D02*
X51586542Y-58731203D01*
X51586542Y-58731203D02*
X51729400Y-58731203D01*
X51729400Y-58731203D02*
X51943685Y-58802632D01*
X51943685Y-58802632D02*
X52800828Y-59659775D01*
X52800828Y-59659775D02*
X52800828Y-58731203D01*
X51300828Y-58302632D02*
X52800828Y-57802632D01*
X52800828Y-57802632D02*
X51300828Y-57302632D01*
X52800828Y-55659776D02*
X51300828Y-55659776D01*
X51800828Y-54945490D02*
X52800828Y-54945490D01*
X51943685Y-54945490D02*
X51872257Y-54874061D01*
X51872257Y-54874061D02*
X51800828Y-54731204D01*
X51800828Y-54731204D02*
X51800828Y-54516918D01*
X51800828Y-54516918D02*
X51872257Y-54374061D01*
X51872257Y-54374061D02*
X52015114Y-54302633D01*
X52015114Y-54302633D02*
X52800828Y-54302633D01*
D10*
X53738095Y-70649819D02*
X53738095Y-71459342D01*
X53738095Y-71459342D02*
X53785714Y-71554580D01*
X53785714Y-71554580D02*
X53833333Y-71602200D01*
X53833333Y-71602200D02*
X53928571Y-71649819D01*
X53928571Y-71649819D02*
X54119047Y-71649819D01*
X54119047Y-71649819D02*
X54214285Y-71602200D01*
X54214285Y-71602200D02*
X54261904Y-71554580D01*
X54261904Y-71554580D02*
X54309523Y-71459342D01*
X54309523Y-71459342D02*
X54309523Y-70649819D01*
X55309523Y-71649819D02*
X54738095Y-71649819D01*
X55023809Y-71649819D02*
X55023809Y-70649819D01*
X55023809Y-70649819D02*
X54928571Y-70792676D01*
X54928571Y-70792676D02*
X54833333Y-70887914D01*
X54833333Y-70887914D02*
X54738095Y-70935533D01*
X58833333Y-85954819D02*
X58500000Y-85478628D01*
X58261905Y-85954819D02*
X58261905Y-84954819D01*
X58261905Y-84954819D02*
X58642857Y-84954819D01*
X58642857Y-84954819D02*
X58738095Y-85002438D01*
X58738095Y-85002438D02*
X58785714Y-85050057D01*
X58785714Y-85050057D02*
X58833333Y-85145295D01*
X58833333Y-85145295D02*
X58833333Y-85288152D01*
X58833333Y-85288152D02*
X58785714Y-85383390D01*
X58785714Y-85383390D02*
X58738095Y-85431009D01*
X58738095Y-85431009D02*
X58642857Y-85478628D01*
X58642857Y-85478628D02*
X58261905Y-85478628D01*
X59214286Y-85050057D02*
X59261905Y-85002438D01*
X59261905Y-85002438D02*
X59357143Y-84954819D01*
X59357143Y-84954819D02*
X59595238Y-84954819D01*
X59595238Y-84954819D02*
X59690476Y-85002438D01*
X59690476Y-85002438D02*
X59738095Y-85050057D01*
X59738095Y-85050057D02*
X59785714Y-85145295D01*
X59785714Y-85145295D02*
X59785714Y-85240533D01*
X59785714Y-85240533D02*
X59738095Y-85383390D01*
X59738095Y-85383390D02*
X59166667Y-85954819D01*
X59166667Y-85954819D02*
X59785714Y-85954819D01*
X58508333Y-72954819D02*
X58175000Y-72478628D01*
X57936905Y-72954819D02*
X57936905Y-71954819D01*
X57936905Y-71954819D02*
X58317857Y-71954819D01*
X58317857Y-71954819D02*
X58413095Y-72002438D01*
X58413095Y-72002438D02*
X58460714Y-72050057D01*
X58460714Y-72050057D02*
X58508333Y-72145295D01*
X58508333Y-72145295D02*
X58508333Y-72288152D01*
X58508333Y-72288152D02*
X58460714Y-72383390D01*
X58460714Y-72383390D02*
X58413095Y-72431009D01*
X58413095Y-72431009D02*
X58317857Y-72478628D01*
X58317857Y-72478628D02*
X57936905Y-72478628D01*
X59460714Y-72954819D02*
X58889286Y-72954819D01*
X59175000Y-72954819D02*
X59175000Y-71954819D01*
X59175000Y-71954819D02*
X59079762Y-72097676D01*
X59079762Y-72097676D02*
X58984524Y-72192914D01*
X58984524Y-72192914D02*
X58889286Y-72240533D01*
X65508333Y-81954819D02*
X65175000Y-81478628D01*
X64936905Y-81954819D02*
X64936905Y-80954819D01*
X64936905Y-80954819D02*
X65317857Y-80954819D01*
X65317857Y-80954819D02*
X65413095Y-81002438D01*
X65413095Y-81002438D02*
X65460714Y-81050057D01*
X65460714Y-81050057D02*
X65508333Y-81145295D01*
X65508333Y-81145295D02*
X65508333Y-81288152D01*
X65508333Y-81288152D02*
X65460714Y-81383390D01*
X65460714Y-81383390D02*
X65413095Y-81431009D01*
X65413095Y-81431009D02*
X65317857Y-81478628D01*
X65317857Y-81478628D02*
X64936905Y-81478628D01*
X66365476Y-81288152D02*
X66365476Y-81954819D01*
X66127381Y-80907200D02*
X65889286Y-81621485D01*
X65889286Y-81621485D02*
X66508333Y-81621485D01*
X45954819Y-72666666D02*
X45478628Y-72999999D01*
X45954819Y-73238094D02*
X44954819Y-73238094D01*
X44954819Y-73238094D02*
X44954819Y-72857142D01*
X44954819Y-72857142D02*
X45002438Y-72761904D01*
X45002438Y-72761904D02*
X45050057Y-72714285D01*
X45050057Y-72714285D02*
X45145295Y-72666666D01*
X45145295Y-72666666D02*
X45288152Y-72666666D01*
X45288152Y-72666666D02*
X45383390Y-72714285D01*
X45383390Y-72714285D02*
X45431009Y-72761904D01*
X45431009Y-72761904D02*
X45478628Y-72857142D01*
X45478628Y-72857142D02*
X45478628Y-73238094D01*
X44954819Y-71761904D02*
X44954819Y-72238094D01*
X44954819Y-72238094D02*
X45431009Y-72285713D01*
X45431009Y-72285713D02*
X45383390Y-72238094D01*
X45383390Y-72238094D02*
X45335771Y-72142856D01*
X45335771Y-72142856D02*
X45335771Y-71904761D01*
X45335771Y-71904761D02*
X45383390Y-71809523D01*
X45383390Y-71809523D02*
X45431009Y-71761904D01*
X45431009Y-71761904D02*
X45526247Y-71714285D01*
X45526247Y-71714285D02*
X45764342Y-71714285D01*
X45764342Y-71714285D02*
X45859580Y-71761904D01*
X45859580Y-71761904D02*
X45907200Y-71809523D01*
X45907200Y-71809523D02*
X45954819Y-71904761D01*
X45954819Y-71904761D02*
X45954819Y-72142856D01*
X45954819Y-72142856D02*
X45907200Y-72238094D01*
X45907200Y-72238094D02*
X45859580Y-72285713D01*
X68333333Y-78524819D02*
X68000000Y-78048628D01*
X67761905Y-78524819D02*
X67761905Y-77524819D01*
X67761905Y-77524819D02*
X68142857Y-77524819D01*
X68142857Y-77524819D02*
X68238095Y-77572438D01*
X68238095Y-77572438D02*
X68285714Y-77620057D01*
X68285714Y-77620057D02*
X68333333Y-77715295D01*
X68333333Y-77715295D02*
X68333333Y-77858152D01*
X68333333Y-77858152D02*
X68285714Y-77953390D01*
X68285714Y-77953390D02*
X68238095Y-78001009D01*
X68238095Y-78001009D02*
X68142857Y-78048628D01*
X68142857Y-78048628D02*
X67761905Y-78048628D01*
X68666667Y-77524819D02*
X69285714Y-77524819D01*
X69285714Y-77524819D02*
X68952381Y-77905771D01*
X68952381Y-77905771D02*
X69095238Y-77905771D01*
X69095238Y-77905771D02*
X69190476Y-77953390D01*
X69190476Y-77953390D02*
X69238095Y-78001009D01*
X69238095Y-78001009D02*
X69285714Y-78096247D01*
X69285714Y-78096247D02*
X69285714Y-78334342D01*
X69285714Y-78334342D02*
X69238095Y-78429580D01*
X69238095Y-78429580D02*
X69190476Y-78477200D01*
X69190476Y-78477200D02*
X69095238Y-78524819D01*
X69095238Y-78524819D02*
X68809524Y-78524819D01*
X68809524Y-78524819D02*
X68714286Y-78477200D01*
X68714286Y-78477200D02*
X68666667Y-78429580D01*
X33904761Y-86050057D02*
X33809523Y-86002438D01*
X33809523Y-86002438D02*
X33714285Y-85907200D01*
X33714285Y-85907200D02*
X33571428Y-85764342D01*
X33571428Y-85764342D02*
X33476190Y-85716723D01*
X33476190Y-85716723D02*
X33380952Y-85716723D01*
X33428571Y-85954819D02*
X33333333Y-85907200D01*
X33333333Y-85907200D02*
X33238095Y-85811961D01*
X33238095Y-85811961D02*
X33190476Y-85621485D01*
X33190476Y-85621485D02*
X33190476Y-85288152D01*
X33190476Y-85288152D02*
X33238095Y-85097676D01*
X33238095Y-85097676D02*
X33333333Y-85002438D01*
X33333333Y-85002438D02*
X33428571Y-84954819D01*
X33428571Y-84954819D02*
X33619047Y-84954819D01*
X33619047Y-84954819D02*
X33714285Y-85002438D01*
X33714285Y-85002438D02*
X33809523Y-85097676D01*
X33809523Y-85097676D02*
X33857142Y-85288152D01*
X33857142Y-85288152D02*
X33857142Y-85621485D01*
X33857142Y-85621485D02*
X33809523Y-85811961D01*
X33809523Y-85811961D02*
X33714285Y-85907200D01*
X33714285Y-85907200D02*
X33619047Y-85954819D01*
X33619047Y-85954819D02*
X33428571Y-85954819D01*
X34238095Y-85050057D02*
X34285714Y-85002438D01*
X34285714Y-85002438D02*
X34380952Y-84954819D01*
X34380952Y-84954819D02*
X34619047Y-84954819D01*
X34619047Y-84954819D02*
X34714285Y-85002438D01*
X34714285Y-85002438D02*
X34761904Y-85050057D01*
X34761904Y-85050057D02*
X34809523Y-85145295D01*
X34809523Y-85145295D02*
X34809523Y-85240533D01*
X34809523Y-85240533D02*
X34761904Y-85383390D01*
X34761904Y-85383390D02*
X34190476Y-85954819D01*
X34190476Y-85954819D02*
X34809523Y-85954819D01*
X42050057Y-69095238D02*
X42002438Y-69190476D01*
X42002438Y-69190476D02*
X41907200Y-69285714D01*
X41907200Y-69285714D02*
X41764342Y-69428571D01*
X41764342Y-69428571D02*
X41716723Y-69523809D01*
X41716723Y-69523809D02*
X41716723Y-69619047D01*
X41954819Y-69571428D02*
X41907200Y-69666666D01*
X41907200Y-69666666D02*
X41811961Y-69761904D01*
X41811961Y-69761904D02*
X41621485Y-69809523D01*
X41621485Y-69809523D02*
X41288152Y-69809523D01*
X41288152Y-69809523D02*
X41097676Y-69761904D01*
X41097676Y-69761904D02*
X41002438Y-69666666D01*
X41002438Y-69666666D02*
X40954819Y-69571428D01*
X40954819Y-69571428D02*
X40954819Y-69380952D01*
X40954819Y-69380952D02*
X41002438Y-69285714D01*
X41002438Y-69285714D02*
X41097676Y-69190476D01*
X41097676Y-69190476D02*
X41288152Y-69142857D01*
X41288152Y-69142857D02*
X41621485Y-69142857D01*
X41621485Y-69142857D02*
X41811961Y-69190476D01*
X41811961Y-69190476D02*
X41907200Y-69285714D01*
X41907200Y-69285714D02*
X41954819Y-69380952D01*
X41954819Y-69380952D02*
X41954819Y-69571428D01*
X41954819Y-68190476D02*
X41954819Y-68761904D01*
X41954819Y-68476190D02*
X40954819Y-68476190D01*
X40954819Y-68476190D02*
X41097676Y-68571428D01*
X41097676Y-68571428D02*
X41192914Y-68666666D01*
X41192914Y-68666666D02*
X41240533Y-68761904D01*
X41833333Y-87754819D02*
X41357143Y-87754819D01*
X41357143Y-87754819D02*
X41357143Y-86754819D01*
X42690476Y-87754819D02*
X42119048Y-87754819D01*
X42404762Y-87754819D02*
X42404762Y-86754819D01*
X42404762Y-86754819D02*
X42309524Y-86897676D01*
X42309524Y-86897676D02*
X42214286Y-86992914D01*
X42214286Y-86992914D02*
X42119048Y-87040533D01*
X69916666Y-93834819D02*
X69916666Y-94549104D01*
X69916666Y-94549104D02*
X69869047Y-94691961D01*
X69869047Y-94691961D02*
X69773809Y-94787200D01*
X69773809Y-94787200D02*
X69630952Y-94834819D01*
X69630952Y-94834819D02*
X69535714Y-94834819D01*
X70345238Y-93930057D02*
X70392857Y-93882438D01*
X70392857Y-93882438D02*
X70488095Y-93834819D01*
X70488095Y-93834819D02*
X70726190Y-93834819D01*
X70726190Y-93834819D02*
X70821428Y-93882438D01*
X70821428Y-93882438D02*
X70869047Y-93930057D01*
X70869047Y-93930057D02*
X70916666Y-94025295D01*
X70916666Y-94025295D02*
X70916666Y-94120533D01*
X70916666Y-94120533D02*
X70869047Y-94263390D01*
X70869047Y-94263390D02*
X70297619Y-94834819D01*
X70297619Y-94834819D02*
X70916666Y-94834819D01*
X47666666Y-51954819D02*
X47666666Y-52669104D01*
X47666666Y-52669104D02*
X47619047Y-52811961D01*
X47619047Y-52811961D02*
X47523809Y-52907200D01*
X47523809Y-52907200D02*
X47380952Y-52954819D01*
X47380952Y-52954819D02*
X47285714Y-52954819D01*
X48666666Y-52954819D02*
X48095238Y-52954819D01*
X48380952Y-52954819D02*
X48380952Y-51954819D01*
X48380952Y-51954819D02*
X48285714Y-52097676D01*
X48285714Y-52097676D02*
X48190476Y-52192914D01*
X48190476Y-52192914D02*
X48095238Y-52240533D01*
X55833333Y-93859580D02*
X55785714Y-93907200D01*
X55785714Y-93907200D02*
X55642857Y-93954819D01*
X55642857Y-93954819D02*
X55547619Y-93954819D01*
X55547619Y-93954819D02*
X55404762Y-93907200D01*
X55404762Y-93907200D02*
X55309524Y-93811961D01*
X55309524Y-93811961D02*
X55261905Y-93716723D01*
X55261905Y-93716723D02*
X55214286Y-93526247D01*
X55214286Y-93526247D02*
X55214286Y-93383390D01*
X55214286Y-93383390D02*
X55261905Y-93192914D01*
X55261905Y-93192914D02*
X55309524Y-93097676D01*
X55309524Y-93097676D02*
X55404762Y-93002438D01*
X55404762Y-93002438D02*
X55547619Y-92954819D01*
X55547619Y-92954819D02*
X55642857Y-92954819D01*
X55642857Y-92954819D02*
X55785714Y-93002438D01*
X55785714Y-93002438D02*
X55833333Y-93050057D01*
X56690476Y-92954819D02*
X56500000Y-92954819D01*
X56500000Y-92954819D02*
X56404762Y-93002438D01*
X56404762Y-93002438D02*
X56357143Y-93050057D01*
X56357143Y-93050057D02*
X56261905Y-93192914D01*
X56261905Y-93192914D02*
X56214286Y-93383390D01*
X56214286Y-93383390D02*
X56214286Y-93764342D01*
X56214286Y-93764342D02*
X56261905Y-93859580D01*
X56261905Y-93859580D02*
X56309524Y-93907200D01*
X56309524Y-93907200D02*
X56404762Y-93954819D01*
X56404762Y-93954819D02*
X56595238Y-93954819D01*
X56595238Y-93954819D02*
X56690476Y-93907200D01*
X56690476Y-93907200D02*
X56738095Y-93859580D01*
X56738095Y-93859580D02*
X56785714Y-93764342D01*
X56785714Y-93764342D02*
X56785714Y-93526247D01*
X56785714Y-93526247D02*
X56738095Y-93431009D01*
X56738095Y-93431009D02*
X56690476Y-93383390D01*
X56690476Y-93383390D02*
X56595238Y-93335771D01*
X56595238Y-93335771D02*
X56404762Y-93335771D01*
X56404762Y-93335771D02*
X56309524Y-93383390D01*
X56309524Y-93383390D02*
X56261905Y-93431009D01*
X56261905Y-93431009D02*
X56214286Y-93526247D01*
X58333333Y-80859580D02*
X58285714Y-80907200D01*
X58285714Y-80907200D02*
X58142857Y-80954819D01*
X58142857Y-80954819D02*
X58047619Y-80954819D01*
X58047619Y-80954819D02*
X57904762Y-80907200D01*
X57904762Y-80907200D02*
X57809524Y-80811961D01*
X57809524Y-80811961D02*
X57761905Y-80716723D01*
X57761905Y-80716723D02*
X57714286Y-80526247D01*
X57714286Y-80526247D02*
X57714286Y-80383390D01*
X57714286Y-80383390D02*
X57761905Y-80192914D01*
X57761905Y-80192914D02*
X57809524Y-80097676D01*
X57809524Y-80097676D02*
X57904762Y-80002438D01*
X57904762Y-80002438D02*
X58047619Y-79954819D01*
X58047619Y-79954819D02*
X58142857Y-79954819D01*
X58142857Y-79954819D02*
X58285714Y-80002438D01*
X58285714Y-80002438D02*
X58333333Y-80050057D01*
X59285714Y-80954819D02*
X58714286Y-80954819D01*
X59000000Y-80954819D02*
X59000000Y-79954819D01*
X59000000Y-79954819D02*
X58904762Y-80097676D01*
X58904762Y-80097676D02*
X58809524Y-80192914D01*
X58809524Y-80192914D02*
X58714286Y-80240533D01*
X28859580Y-76166666D02*
X28907200Y-76214285D01*
X28907200Y-76214285D02*
X28954819Y-76357142D01*
X28954819Y-76357142D02*
X28954819Y-76452380D01*
X28954819Y-76452380D02*
X28907200Y-76595237D01*
X28907200Y-76595237D02*
X28811961Y-76690475D01*
X28811961Y-76690475D02*
X28716723Y-76738094D01*
X28716723Y-76738094D02*
X28526247Y-76785713D01*
X28526247Y-76785713D02*
X28383390Y-76785713D01*
X28383390Y-76785713D02*
X28192914Y-76738094D01*
X28192914Y-76738094D02*
X28097676Y-76690475D01*
X28097676Y-76690475D02*
X28002438Y-76595237D01*
X28002438Y-76595237D02*
X27954819Y-76452380D01*
X27954819Y-76452380D02*
X27954819Y-76357142D01*
X27954819Y-76357142D02*
X28002438Y-76214285D01*
X28002438Y-76214285D02*
X28050057Y-76166666D01*
X28383390Y-75595237D02*
X28335771Y-75690475D01*
X28335771Y-75690475D02*
X28288152Y-75738094D01*
X28288152Y-75738094D02*
X28192914Y-75785713D01*
X28192914Y-75785713D02*
X28145295Y-75785713D01*
X28145295Y-75785713D02*
X28050057Y-75738094D01*
X28050057Y-75738094D02*
X28002438Y-75690475D01*
X28002438Y-75690475D02*
X27954819Y-75595237D01*
X27954819Y-75595237D02*
X27954819Y-75404761D01*
X27954819Y-75404761D02*
X28002438Y-75309523D01*
X28002438Y-75309523D02*
X28050057Y-75261904D01*
X28050057Y-75261904D02*
X28145295Y-75214285D01*
X28145295Y-75214285D02*
X28192914Y-75214285D01*
X28192914Y-75214285D02*
X28288152Y-75261904D01*
X28288152Y-75261904D02*
X28335771Y-75309523D01*
X28335771Y-75309523D02*
X28383390Y-75404761D01*
X28383390Y-75404761D02*
X28383390Y-75595237D01*
X28383390Y-75595237D02*
X28431009Y-75690475D01*
X28431009Y-75690475D02*
X28478628Y-75738094D01*
X28478628Y-75738094D02*
X28573866Y-75785713D01*
X28573866Y-75785713D02*
X28764342Y-75785713D01*
X28764342Y-75785713D02*
X28859580Y-75738094D01*
X28859580Y-75738094D02*
X28907200Y-75690475D01*
X28907200Y-75690475D02*
X28954819Y-75595237D01*
X28954819Y-75595237D02*
X28954819Y-75404761D01*
X28954819Y-75404761D02*
X28907200Y-75309523D01*
X28907200Y-75309523D02*
X28859580Y-75261904D01*
X28859580Y-75261904D02*
X28764342Y-75214285D01*
X28764342Y-75214285D02*
X28573866Y-75214285D01*
X28573866Y-75214285D02*
X28478628Y-75261904D01*
X28478628Y-75261904D02*
X28431009Y-75309523D01*
X28431009Y-75309523D02*
X28383390Y-75404761D01*
X63859580Y-71166666D02*
X63907200Y-71214285D01*
X63907200Y-71214285D02*
X63954819Y-71357142D01*
X63954819Y-71357142D02*
X63954819Y-71452380D01*
X63954819Y-71452380D02*
X63907200Y-71595237D01*
X63907200Y-71595237D02*
X63811961Y-71690475D01*
X63811961Y-71690475D02*
X63716723Y-71738094D01*
X63716723Y-71738094D02*
X63526247Y-71785713D01*
X63526247Y-71785713D02*
X63383390Y-71785713D01*
X63383390Y-71785713D02*
X63192914Y-71738094D01*
X63192914Y-71738094D02*
X63097676Y-71690475D01*
X63097676Y-71690475D02*
X63002438Y-71595237D01*
X63002438Y-71595237D02*
X62954819Y-71452380D01*
X62954819Y-71452380D02*
X62954819Y-71357142D01*
X62954819Y-71357142D02*
X63002438Y-71214285D01*
X63002438Y-71214285D02*
X63050057Y-71166666D01*
X63050057Y-70785713D02*
X63002438Y-70738094D01*
X63002438Y-70738094D02*
X62954819Y-70642856D01*
X62954819Y-70642856D02*
X62954819Y-70404761D01*
X62954819Y-70404761D02*
X63002438Y-70309523D01*
X63002438Y-70309523D02*
X63050057Y-70261904D01*
X63050057Y-70261904D02*
X63145295Y-70214285D01*
X63145295Y-70214285D02*
X63240533Y-70214285D01*
X63240533Y-70214285D02*
X63383390Y-70261904D01*
X63383390Y-70261904D02*
X63954819Y-70833332D01*
X63954819Y-70833332D02*
X63954819Y-70214285D01*
X51333333Y-83859580D02*
X51285714Y-83907200D01*
X51285714Y-83907200D02*
X51142857Y-83954819D01*
X51142857Y-83954819D02*
X51047619Y-83954819D01*
X51047619Y-83954819D02*
X50904762Y-83907200D01*
X50904762Y-83907200D02*
X50809524Y-83811961D01*
X50809524Y-83811961D02*
X50761905Y-83716723D01*
X50761905Y-83716723D02*
X50714286Y-83526247D01*
X50714286Y-83526247D02*
X50714286Y-83383390D01*
X50714286Y-83383390D02*
X50761905Y-83192914D01*
X50761905Y-83192914D02*
X50809524Y-83097676D01*
X50809524Y-83097676D02*
X50904762Y-83002438D01*
X50904762Y-83002438D02*
X51047619Y-82954819D01*
X51047619Y-82954819D02*
X51142857Y-82954819D01*
X51142857Y-82954819D02*
X51285714Y-83002438D01*
X51285714Y-83002438D02*
X51333333Y-83050057D01*
X51666667Y-82954819D02*
X52285714Y-82954819D01*
X52285714Y-82954819D02*
X51952381Y-83335771D01*
X51952381Y-83335771D02*
X52095238Y-83335771D01*
X52095238Y-83335771D02*
X52190476Y-83383390D01*
X52190476Y-83383390D02*
X52238095Y-83431009D01*
X52238095Y-83431009D02*
X52285714Y-83526247D01*
X52285714Y-83526247D02*
X52285714Y-83764342D01*
X52285714Y-83764342D02*
X52238095Y-83859580D01*
X52238095Y-83859580D02*
X52190476Y-83907200D01*
X52190476Y-83907200D02*
X52095238Y-83954819D01*
X52095238Y-83954819D02*
X51809524Y-83954819D01*
X51809524Y-83954819D02*
X51714286Y-83907200D01*
X51714286Y-83907200D02*
X51666667Y-83859580D01*
X62083333Y-52859580D02*
X62035714Y-52907200D01*
X62035714Y-52907200D02*
X61892857Y-52954819D01*
X61892857Y-52954819D02*
X61797619Y-52954819D01*
X61797619Y-52954819D02*
X61654762Y-52907200D01*
X61654762Y-52907200D02*
X61559524Y-52811961D01*
X61559524Y-52811961D02*
X61511905Y-52716723D01*
X61511905Y-52716723D02*
X61464286Y-52526247D01*
X61464286Y-52526247D02*
X61464286Y-52383390D01*
X61464286Y-52383390D02*
X61511905Y-52192914D01*
X61511905Y-52192914D02*
X61559524Y-52097676D01*
X61559524Y-52097676D02*
X61654762Y-52002438D01*
X61654762Y-52002438D02*
X61797619Y-51954819D01*
X61797619Y-51954819D02*
X61892857Y-51954819D01*
X61892857Y-51954819D02*
X62035714Y-52002438D01*
X62035714Y-52002438D02*
X62083333Y-52050057D01*
X62416667Y-51954819D02*
X63083333Y-51954819D01*
X63083333Y-51954819D02*
X62654762Y-52954819D01*
X51058333Y-66859580D02*
X51010714Y-66907200D01*
X51010714Y-66907200D02*
X50867857Y-66954819D01*
X50867857Y-66954819D02*
X50772619Y-66954819D01*
X50772619Y-66954819D02*
X50629762Y-66907200D01*
X50629762Y-66907200D02*
X50534524Y-66811961D01*
X50534524Y-66811961D02*
X50486905Y-66716723D01*
X50486905Y-66716723D02*
X50439286Y-66526247D01*
X50439286Y-66526247D02*
X50439286Y-66383390D01*
X50439286Y-66383390D02*
X50486905Y-66192914D01*
X50486905Y-66192914D02*
X50534524Y-66097676D01*
X50534524Y-66097676D02*
X50629762Y-66002438D01*
X50629762Y-66002438D02*
X50772619Y-65954819D01*
X50772619Y-65954819D02*
X50867857Y-65954819D01*
X50867857Y-65954819D02*
X51010714Y-66002438D01*
X51010714Y-66002438D02*
X51058333Y-66050057D01*
X51915476Y-66288152D02*
X51915476Y-66954819D01*
X51677381Y-65907200D02*
X51439286Y-66621485D01*
X51439286Y-66621485D02*
X52058333Y-66621485D01*
X69058333Y-74429580D02*
X69010714Y-74477200D01*
X69010714Y-74477200D02*
X68867857Y-74524819D01*
X68867857Y-74524819D02*
X68772619Y-74524819D01*
X68772619Y-74524819D02*
X68629762Y-74477200D01*
X68629762Y-74477200D02*
X68534524Y-74381961D01*
X68534524Y-74381961D02*
X68486905Y-74286723D01*
X68486905Y-74286723D02*
X68439286Y-74096247D01*
X68439286Y-74096247D02*
X68439286Y-73953390D01*
X68439286Y-73953390D02*
X68486905Y-73762914D01*
X68486905Y-73762914D02*
X68534524Y-73667676D01*
X68534524Y-73667676D02*
X68629762Y-73572438D01*
X68629762Y-73572438D02*
X68772619Y-73524819D01*
X68772619Y-73524819D02*
X68867857Y-73524819D01*
X68867857Y-73524819D02*
X69010714Y-73572438D01*
X69010714Y-73572438D02*
X69058333Y-73620057D01*
X69963095Y-73524819D02*
X69486905Y-73524819D01*
X69486905Y-73524819D02*
X69439286Y-74001009D01*
X69439286Y-74001009D02*
X69486905Y-73953390D01*
X69486905Y-73953390D02*
X69582143Y-73905771D01*
X69582143Y-73905771D02*
X69820238Y-73905771D01*
X69820238Y-73905771D02*
X69915476Y-73953390D01*
X69915476Y-73953390D02*
X69963095Y-74001009D01*
X69963095Y-74001009D02*
X70010714Y-74096247D01*
X70010714Y-74096247D02*
X70010714Y-74334342D01*
X70010714Y-74334342D02*
X69963095Y-74429580D01*
X69963095Y-74429580D02*
X69915476Y-74477200D01*
X69915476Y-74477200D02*
X69820238Y-74524819D01*
X69820238Y-74524819D02*
X69582143Y-74524819D01*
X69582143Y-74524819D02*
X69486905Y-74477200D01*
X69486905Y-74477200D02*
X69439286Y-74429580D01*
%TO.C,U1*%
D12*
X49465000Y-72035000D02*
X53585000Y-72035000D01*
X49465000Y-72130000D02*
X49465000Y-72035000D01*
X49465000Y-77155000D02*
X49465000Y-77060000D01*
X53585000Y-72035000D02*
X53585000Y-72130000D01*
X53585000Y-77060000D02*
X53585000Y-77155000D01*
X53585000Y-77155000D02*
X49465000Y-77155000D01*
X48925000Y-72125000D02*
X48685000Y-71795000D01*
X49165000Y-71795000D01*
X48925000Y-72125000D01*
G36*
X48925000Y-72125000D02*
G01*
X48685000Y-71795000D01*
X49165000Y-71795000D01*
X48925000Y-72125000D01*
G37*
%TO.C,R2*%
X58937742Y-82977500D02*
X59412258Y-82977500D01*
X58937742Y-84022500D02*
X59412258Y-84022500D01*
%TO.C,R1*%
X58437742Y-73477500D02*
X58912258Y-73477500D01*
X58437742Y-74522500D02*
X58912258Y-74522500D01*
%TO.C,R4*%
X65437742Y-82977500D02*
X65912258Y-82977500D01*
X65437742Y-84022500D02*
X65912258Y-84022500D01*
%TO.C,R5*%
X46022500Y-75437742D02*
X46022500Y-75912258D01*
X44977500Y-75437742D02*
X44977500Y-75912258D01*
%TO.C,R3*%
X68937742Y-78977500D02*
X69412258Y-78977500D01*
X68937742Y-80022500D02*
X69412258Y-80022500D01*
%TO.C,Q2*%
X35755000Y-77525000D02*
X35755000Y-77795000D01*
X35755000Y-84425000D02*
X35755000Y-84155000D01*
X42175000Y-77525000D02*
X35755000Y-77525000D01*
X42175000Y-84425000D02*
X35755000Y-84425000D01*
X34025000Y-77835000D02*
X33685000Y-77365000D01*
X34365000Y-77365000D01*
X34025000Y-77835000D01*
G36*
X34025000Y-77835000D02*
G01*
X33685000Y-77365000D01*
X34365000Y-77365000D01*
X34025000Y-77835000D01*
G37*
%TO.C,Q1*%
X33525000Y-72745000D02*
X33795000Y-72745000D01*
X40425000Y-72745000D02*
X40155000Y-72745000D01*
X33525000Y-66325000D02*
X33525000Y-72745000D01*
X40425000Y-66325000D02*
X40425000Y-72745000D01*
X33835000Y-74475000D02*
X33365000Y-74815000D01*
X33365000Y-74135000D01*
X33835000Y-74475000D01*
G36*
X33835000Y-74475000D02*
G01*
X33365000Y-74815000D01*
X33365000Y-74135000D01*
X33835000Y-74475000D01*
G37*
%TO.C,L1*%
X37315000Y-89550000D02*
X37315000Y-88700000D01*
X37315000Y-94250000D02*
X37315000Y-93450000D01*
X37925000Y-88090000D02*
X43625000Y-88090000D01*
X43625000Y-94910000D02*
X37975000Y-94910000D01*
X44235000Y-88700000D02*
X44235000Y-89550000D01*
X44235000Y-93450000D02*
X44235000Y-94300000D01*
X37315000Y-88700000D02*
G75*
G02*
X37925000Y-88090000I610000J0D01*
G01*
X37975000Y-94910000D02*
G75*
G02*
X37315000Y-94250000I2J660002D01*
G01*
X43625000Y-88090000D02*
G75*
G02*
X44235000Y-88700000I0J-610000D01*
G01*
X44235000Y-94300000D02*
G75*
G02*
X43625000Y-94910000I-610000J0D01*
G01*
%TO.C,J2*%
X64880000Y-95380000D02*
X75620000Y-95380000D01*
X64880000Y-99000000D02*
X66120000Y-99000000D01*
X64880000Y-100000000D02*
X66120000Y-100000000D01*
X64880000Y-101300000D02*
X66120000Y-101300000D01*
X64880000Y-103420000D02*
X64880000Y-95380000D01*
X67700000Y-103420000D02*
X64880000Y-103420000D01*
X69880000Y-99000000D02*
X71188000Y-99000000D01*
X69880000Y-100000000D02*
X71188000Y-100000000D01*
X69880000Y-101300000D02*
X72457000Y-101300000D01*
X73543000Y-101300000D02*
X75620000Y-101300000D01*
X74812000Y-99000000D02*
X75620000Y-99000000D01*
X74812000Y-100000000D02*
X75620000Y-100000000D01*
X75620000Y-95380000D02*
X75620000Y-103420000D01*
X75620000Y-103420000D02*
X68300000Y-103420000D01*
X68000000Y-103420000D02*
X68440000Y-104030000D01*
X67560000Y-104030000D01*
X68000000Y-103420000D01*
G36*
X68440000Y-104030000D02*
G01*
X67560000Y-104030000D01*
X68000000Y-103420000D01*
X68440000Y-104030000D01*
G37*
%TO.C,J1*%
X50120000Y-62120000D02*
X39380000Y-62120000D01*
X50120000Y-58500000D02*
X48880000Y-58500000D01*
X50120000Y-57500000D02*
X48880000Y-57500000D01*
X50120000Y-56200000D02*
X48880000Y-56200000D01*
X50120000Y-54080000D02*
X50120000Y-62120000D01*
X47300000Y-54080000D02*
X50120000Y-54080000D01*
X45120000Y-58500000D02*
X43812000Y-58500000D01*
X45120000Y-57500000D02*
X43812000Y-57500000D01*
X45120000Y-56200000D02*
X42543000Y-56200000D01*
X41457000Y-56200000D02*
X39380000Y-56200000D01*
X40188000Y-58500000D02*
X39380000Y-58500000D01*
X40188000Y-57500000D02*
X39380000Y-57500000D01*
X39380000Y-62120000D02*
X39380000Y-54080000D01*
X39380000Y-54080000D02*
X46700000Y-54080000D01*
X47000000Y-54080000D02*
X46560000Y-53470000D01*
X47440000Y-53470000D01*
X47000000Y-54080000D01*
G36*
X47000000Y-54080000D02*
G01*
X46560000Y-53470000D01*
X47440000Y-53470000D01*
X47000000Y-54080000D01*
G37*
%TO.C,C6*%
X46400000Y-97040000D02*
X47650000Y-97040000D01*
X47025000Y-96415000D02*
X47025000Y-97665000D01*
X47890000Y-95304437D02*
X47890000Y-98290000D01*
X47890000Y-95304437D02*
X48954437Y-94240000D01*
X47890000Y-103695563D02*
X47890000Y-100710000D01*
X47890000Y-103695563D02*
X48954437Y-104760000D01*
X48954437Y-94240000D02*
X58410000Y-94240000D01*
X48954437Y-104760000D02*
X58410000Y-104760000D01*
X58410000Y-94240000D02*
X58410000Y-98290000D01*
X58410000Y-104760000D02*
X58410000Y-100710000D01*
%TO.C,C1*%
X58084420Y-77990000D02*
X58365580Y-77990000D01*
X58084420Y-79010000D02*
X58365580Y-79010000D01*
%TO.C,C8*%
X29590000Y-76236252D02*
X29590000Y-74813748D01*
X31410000Y-76236252D02*
X31410000Y-74813748D01*
%TO.C,C2*%
X62990000Y-74865580D02*
X62990000Y-74584420D01*
X64010000Y-74865580D02*
X64010000Y-74584420D01*
%TO.C,C3*%
X51811252Y-81735000D02*
X51288748Y-81735000D01*
X51811252Y-80265000D02*
X51288748Y-80265000D01*
%TO.C,C7*%
X66510000Y-62260000D02*
X66510000Y-59510000D01*
X66510000Y-53740000D02*
X66510000Y-56490000D01*
X59054437Y-62260000D02*
X66510000Y-62260000D01*
X59054437Y-53740000D02*
X66510000Y-53740000D01*
X57990000Y-61195563D02*
X59054437Y-62260000D01*
X57990000Y-61195563D02*
X57990000Y-59510000D01*
X57990000Y-54804437D02*
X59054437Y-53740000D01*
X57990000Y-54804437D02*
X57990000Y-56490000D01*
X57250000Y-54990000D02*
X57250000Y-55990000D01*
X56750000Y-55490000D02*
X57750000Y-55490000D01*
%TO.C,C4*%
X51084420Y-67490000D02*
X51365580Y-67490000D01*
X51084420Y-68510000D02*
X51365580Y-68510000D01*
%TO.C,C5*%
X69084420Y-74990000D02*
X69365580Y-74990000D01*
X69084420Y-76010000D02*
X69365580Y-76010000D01*
%TD*%
M02*
